<?xml version="1.0" encoding="UTF-8"?>
<svg width="50px" height="50px" viewBox="0 0 50 50" version="1.1" xmlns="http://www.w3.org/2000/svg" xmlns:xlink="http://www.w3.org/1999/xlink">
    <!-- Generator: Sketch 55.1 (78136) - https://sketchapp.com -->
    <title>编组</title>
    <desc>Created with Sketch.</desc>
    <defs>
        <linearGradient x1="100%" y1="99.997216%" x2="0%" y2="0.00278397522%" id="linearGradient-1">
            <stop stop-color="#FE3876" offset="0%"></stop>
            <stop stop-color="#7C30DD" offset="71.4447846%"></stop>
            <stop stop-color="#3A30DD" offset="100%"></stop>
        </linearGradient>
    </defs>
    <g id="Page-1" stroke="none" stroke-width="1" fill="none" fill-rule="evenodd">
        <g id="桌面端HD" transform="translate(-230.000000, -134.000000)">
            <g id="编组-2" transform="translate(210.000000, 124.000000)">
                <g id="编组" transform="translate(20.000000, 10.000000)">
                    <circle id="椭圆形" stroke="#EDEDED" fill="#FFFFFF" cx="25" cy="25" r="24.5"></circle>
                    <path d="M35.7807837,32.2345686 C34.9012231,32.2345686 34.1240142,32.5878688 33.4988182,33.1070394 L27.9845891,29.1719137 C28.3343121,28.4512625 28.5462665,27.6600028 28.5462665,26.8086727 C28.5462665,25.6393949 28.164768,24.5585148 27.5359626,23.6753448 L33.9862455,17.2215492 C34.5231406,17.5359197 35.113113,17.7655342 35.7808159,17.7655342 C37.7801542,17.7655342 39.3980262,16.14763 39.3980262,14.1482595 C39.3980262,12.148889 37.7801864,10.5309203 35.7808159,10.5309203 C33.781381,10.5309203 32.1635412,12.1488246 32.1635412,14.148195 C32.1635412,14.8158335 32.3930913,15.4057737 32.7075262,15.942701 L26.2571789,22.3965933 C25.3669513,21.7607625 24.2931287,21.3827445 23.1203383,21.3827445 C21.0502949,21.3827445 19.2699041,22.5590798 18.3550232,24.2688299 L13.9994693,22.8134444 C13.8228675,22.0009151 13.1339595,21.3827767 12.2676763,21.3827767 C11.2679749,21.3827767 10.459055,22.1916966 10.459055,23.1914302 C10.459055,24.1910993 11.2679427,25.0000192 12.2676763,25.0000192 C12.7242627,25.0000192 13.130479,24.8163276 13.4484267,24.5373097 L17.7792305,25.9821248 C17.7368203,26.2541173 17.6944746,26.5261098 17.6944746,26.8086727 C17.6944746,29.8041996 20.1247792,32.2345686 23.1203383,32.2345686 C24.6110764,32.2345686 25.9640135,31.6305455 26.9460547,30.6555619 L32.4248989,34.566002 C32.26947,34.9686734 32.1635412,35.3961592 32.1635412,35.8518434 C32.1635412,37.8477011 33.781381,39.4690858 35.7807837,39.4690858 C37.780122,39.4690858 39.3980262,37.8477011 39.3980262,35.8518434 C39.3980262,33.8559856 37.7801864,32.2345686 35.7807837,32.2345686 L35.7807837,32.2345686 Z" id="路径" fill="url(#linearGradient-1)"></path>
                </g>
            </g>
        </g>
    </g>
</svg>